<?xml version="1.0" encoding="UTF-8"?>
<svg width="198px" height="54px" viewBox="0 0 198 54" version="1.1" xmlns="http://www.w3.org/2000/svg" xmlns:xlink="http://www.w3.org/1999/xlink">
    <title>水印bilibili</title>
    <defs>
        <polygon id="path-1" points="0 0 6.97175219 0 6.97175219 25.3979968 0 25.3979968"></polygon>
        <polygon id="path-3" points="0 0 6.97175219 0 6.97175219 6.98710883 0 6.98710883"></polygon>
        <polygon id="path-5" points="0 0 53.2039974 0 53.2039974 50 0 50"></polygon>
    </defs>
    <g id="水印bilibili" stroke="none" stroke-width="1" fill="none" fill-rule="evenodd" opacity="0.7">
        <g id="编组" transform="translate(0.000000, 2.000000)">
            <path d="M103.320681,21.0343605 L99.2179061,21.0343605 C98.4255637,21.0343605 97.7833695,21.6779604 97.7833695,22.4720372 L97.7833695,44.9946806 C97.7833695,45.7887574 98.4255637,46.4323573 99.2179061,46.4323573 L103.320681,46.4323573 C104.113023,46.4323573 104.755217,45.7887574 104.755217,44.9946806 L104.755217,22.4720372 C104.755217,21.6779604 104.113023,21.0343605 103.320681,21.0343605" id="Fill-1" fill="#F4F4F4"></path>
            <path d="M103.320681,10.6327694 L99.2179061,10.6327694 C98.4255637,10.6327694 97.7833695,11.2763694 97.7833695,12.0704462 L97.7833695,16.1822016 C97.7833695,16.9762783 98.4255637,17.6198783 99.2179061,17.6198783 L103.320681,17.6198783 C104.113023,17.6198783 104.755217,16.9762783 104.755217,16.1822016 L104.755217,12.0704462 C104.755217,11.2763694 104.113023,10.6327694 103.320681,10.6327694" id="Fill-3" fill="#F4F4F4"></path>
            <path d="M127.229624,21.0343605 L123.126849,21.0343605 C122.334507,21.0343605 121.692313,21.6779604 121.692313,22.4720372 L121.692313,44.9946806 C121.692313,45.7887574 122.334507,46.4323573 123.126849,46.4323573 L127.229624,46.4323573 C128.021966,46.4323573 128.66416,45.7887574 128.66416,44.9946806 L128.66416,22.4720372 C128.66416,21.6779604 128.021966,21.0343605 127.229624,21.0343605" id="Fill-5" fill="#F4F4F4"></path>
            <path d="M127.229624,10.6327694 L123.126849,10.6327694 C122.334507,10.6327694 121.692313,11.2763694 121.692313,12.0704462 L121.692313,16.1822016 C121.692313,16.9762783 122.334507,17.6198783 123.126849,17.6198783 L127.229624,17.6198783 C128.021966,17.6198783 128.66416,16.9762783 128.66416,16.1822016 L128.66416,12.0704462 C128.66416,11.2763694 128.021966,10.6327694 127.229624,10.6327694" id="Fill-7" fill="#F4F4F4"></path>
            <path d="M115.275152,10.6327694 L111.172378,10.6327694 C110.380035,10.6327694 109.737841,11.2763694 109.737841,12.0704462 L109.737841,44.9946806 C109.737841,45.7887574 110.380035,46.4323573 111.172378,46.4323573 L115.275152,46.4323573 C116.067495,46.4323573 116.709689,45.7887574 116.709689,44.9946806 L116.709689,12.0704462 C116.709689,11.2763694 116.067495,10.6327694 115.275152,10.6327694" id="Fill-9" fill="#F4F4F4"></path>
            <path d="M172.656616,21.0343605 L168.553841,21.0343605 C167.761499,21.0343605 167.119305,21.6779604 167.119305,22.4720372 L167.119305,44.9946806 C167.119305,45.7887574 167.761499,46.4323573 168.553841,46.4323573 L172.656616,46.4323573 C173.448958,46.4323573 174.091152,45.7887574 174.091152,44.9946806 L174.091152,22.4720372 C174.091152,21.6779604 173.448958,21.0343605 172.656616,21.0343605" id="Fill-11" fill="#F4F4F4"></path>
            <path d="M172.656616,10.6327694 L168.553841,10.6327694 C167.761499,10.6327694 167.119305,11.2763694 167.119305,12.0704462 L167.119305,16.1822016 C167.119305,16.9762783 167.761499,17.6198783 168.553841,17.6198783 L172.656616,17.6198783 C173.448958,17.6198783 174.091152,16.9762783 174.091152,16.1822016 L174.091152,12.0704462 C174.091152,11.2763694 173.448958,10.6327694 172.656616,10.6327694" id="Fill-13" fill="#F4F4F4"></path>
            <g transform="translate(191.028248, 21.034360)">
                <mask id="mask-2" fill="white">
                    <use xlink:href="#path-1"></use>
                </mask>
                <g id="Clip-16"></g>
                <path d="M5.53731123,0 L1.43453659,0 C0.642194213,0 0,0.643599942 0,1.43767671 L0,23.9603201 C0,24.7543969 0.642194213,25.3979968 1.43453659,25.3979968 L5.53731123,25.3979968 C6.32965361,25.3979968 6.97184782,24.7543969 6.97184782,23.9603201 L6.97184782,1.43767671 C6.97184782,0.643599942 6.32965361,0 5.53731123,0" id="Fill-15" fill="#F4F4F4" mask="url(#mask-2)"></path>
            </g>
            <g transform="translate(191.028248, 10.632769)">
                <mask id="mask-4" fill="white">
                    <use xlink:href="#path-3"></use>
                </mask>
                <g id="Clip-18"></g>
                <path d="M5.53731123,0 L1.43453659,0 C0.642194213,0 0,0.643599942 0,1.43767671 L0,5.54943212 C0,6.34350889 0.642194213,6.98710883 1.43453659,6.98710883 L5.53731123,6.98710883 C6.32965361,6.98710883 6.97184782,6.34350889 6.97184782,5.54943212 L6.97184782,1.43767671 C6.97184782,0.643599942 6.32965361,0 5.53731123,0" id="Fill-17" fill="#F4F4F4" mask="url(#mask-4)"></path>
            </g>
            <path d="M184.611087,10.6327694 L180.508313,10.6327694 C179.71597,10.6327694 179.073776,11.2763694 179.073776,12.0704462 L179.073776,44.9946806 C179.073776,45.7887574 179.71597,46.4323573 180.508313,46.4323573 L184.611087,46.4323573 C185.40343,46.4323573 186.045624,45.7887574 186.045624,44.9946806 L186.045624,12.0704462 C186.045624,11.2763694 185.40343,10.6327694 184.611087,10.6327694" id="Fill-19" fill="#F4F4F4"></path>
            <path d="M84.3398968,39.8680692 L71.385075,39.8680692 L71.385075,31.8180381 L84.3398968,31.8180381 C86.5543431,31.8180381 88.3561211,33.62376 88.3561211,35.8430536 C88.3561211,38.0623472 86.5543431,39.8680692 84.3398968,39.8680692 L84.3398968,39.8680692 Z M81.565503,17.1973451 C83.7799493,17.1973451 85.5817273,19.003067 85.5817273,21.2223607 C85.5817273,23.4421335 83.7799493,25.2473762 81.565503,25.2473762 L71.385075,25.2473762 L71.385075,17.1973451 L81.565503,17.1973451 Z M89.8537773,27.1278574 C91.457111,25.3475344 92.1318214,23.40715 92.1318214,21.2223607 C92.1318214,15.3834763 87.3916343,10.6329132 81.565503,10.6329132 L71.385075,10.6329132 L65.762648,10.6329132 L65.7454335,10.6329132 C64.9530911,10.6329132 64.3108969,11.2765132 64.3108969,12.0705899 L64.3108969,44.9948244 C64.3108969,45.7884219 64.9530911,46.4325011 65.7454335,46.4325011 L65.8673691,46.4325011 L71.385075,46.4325011 L84.3398968,46.4325011 C90.1665062,46.4325011 94.9062151,41.681938 94.9062151,35.8430536 C94.9062151,32.2325682 92.8916476,28.7021134 89.8537773,27.1278574 L89.8537773,27.1278574 Z" id="Fill-21" fill="#F4F4F4"></path>
            <path d="M153.676071,39.8680692 L140.720771,39.8680692 L140.720771,31.8180381 L153.676071,31.8180381 C155.890517,31.8180381 157.691817,33.62376 157.691817,35.8430536 C157.691817,38.0623472 155.890517,39.8680692 153.676071,39.8680692 L153.676071,39.8680692 Z M150.901199,17.1973451 C153.115645,17.1973451 154.917902,19.003067 154.917902,21.2223607 C154.917902,23.4421335 153.115645,25.2473762 150.901199,25.2473762 L140.720771,25.2473762 L140.720771,17.1973451 L150.901199,17.1973451 Z M159.189473,27.1278574 C160.793285,25.3475344 161.467517,23.40715 161.467517,21.2223607 C161.467517,15.3834763 156.727809,10.6329132 150.901199,10.6329132 L140.720771,10.6329132 L135.098344,10.6329132 L135.08113,10.6329132 C134.288787,10.6329132 133.646593,11.2765132 133.646593,12.0705899 L133.646593,44.9948244 C133.646593,45.7884219 134.288787,46.4325011 135.08113,46.4325011 L135.203543,46.4325011 L140.720771,46.4325011 L153.676071,46.4325011 C159.50268,46.4325011 164.242389,41.681938 164.242389,35.8430536 C164.242389,32.2325682 162.227822,28.7021134 159.189473,27.1278574 L159.189473,27.1278574 Z" id="Fill-23" fill="#F4F4F4"></path>
            <g>
                <mask id="mask-6" fill="white">
                    <use xlink:href="#path-5"></use>
                </mask>
                <g id="Clip-26"></g>
                <path d="M47.3410463,35.9577802 C47.3391336,37.7893804 47.2564087,39.1225859 47.0885679,40.0307184 L47.0770916,40.0906216 C46.9680668,40.656587 46.842784,41.0073801 46.5616148,41.5354867 C46.139861,42.3257296 45.551701,42.9161355 44.7631841,43.3388125 C44.2376655,43.6205971 43.8876386,43.7466334 43.3229094,43.8554176 C42.4057623,44.0336896 41.036258,44.1199502 39.1374098,44.1199502 L14.0005033,44.1199502 C12.1757728,44.1180333 10.8469137,44.0351272 9.93980839,43.8669191 L9.88051421,43.8554176 C9.31578497,43.7461542 8.96623623,43.6205971 8.44023948,43.3383333 C7.65220071,42.9161355 7.06404071,42.3257296 6.64228695,41.5354867 C6.36111778,41.0073801 6.23583492,40.656587 6.12681014,40.0901423 C5.95896936,39.2203479 5.87289716,37.9532755 5.86381176,36.2179997 L5.8628554,21.1065798 C5.86476812,19.3003786 5.95179667,17.9187713 6.12107199,17.0048881 C6.23153131,16.4298174 6.36781228,16.0435616 6.64228695,15.5293526 C7.06404071,14.7391096 7.65220071,14.1487037 8.44023948,13.7255475 C8.96623623,13.4442421 9.31578497,13.318685 9.88051421,13.2089423 C10.748887,13.0407342 12.1418221,12.9544736 13.8709168,12.9448891 L13.8709168,12.9444098 L39.2029203,12.9444098 C41.0309981,12.9463267 42.3899824,13.0349835 43.2932623,13.2031916 C43.8579915,13.3124551 44.2376655,13.4442421 44.7631841,13.7255475 C45.551701,14.1487037 46.139861,14.7391096 46.5616148,15.5293526 C46.842784,16.0574591 46.9680668,16.4082523 47.0770916,16.9746969 C47.254496,17.8967269 47.3410463,19.2697082 47.3410463,21.1727129 L47.3410463,35.9577802 Z M47.5289706,8.54128528 C45.7032837,7.56222744 43.9038967,7.0647913 39.1374098,7.0647913 L38.5640733,7.0647913 L40.544212,4.74917334 C41.5751656,3.54392102 41.4360156,1.72286385 40.2343521,0.688695069 C39.0513376,-0.328700819 37.2486033,-0.205060622 36.1846553,1.00019169 L30.9983273,7.0647913 L22.273954,7.0647913 L17.0565444,0.964249772 C16.0236781,-0.205060622 14.2209438,-0.328700819 13.0379292,0.688695069 C11.8362658,1.72286385 11.6966375,3.54392102 12.7275912,4.74917334 L14.7077298,7.0647913 L14.066492,7.0647913 C9.3717319,7.0647913 7.4805345,7.5914602 5.72800896,8.5134902 C3.91045111,9.48823501 2.44387653,10.9340586 1.47221708,12.7565534 C0.495775845,14.5876743 -9.56357729e-05,16.3924378 -9.56357729e-05,21.1727129 L-9.56357729e-05,36.0311017 L0.000860721953,36.0320602 C0.0109024781,40.7040303 0.505817601,42.4953755 1.47221708,44.3078066 C2.43000935,46.103944 3.90136571,47.5708535 5.72705261,48.5503906 C7.50013983,49.483922 9.39994445,49.9899842 13.9966779,50.0000479 L13.997156,50.0000479 L39.2760816,50.0000479 C43.8732932,49.9899842 45.7037619,49.483922 47.4768491,48.5503906 C49.302536,47.5708535 50.7738924,46.103944 51.7316847,44.3078066 C52.7081259,42.4766857 53.2039974,40.6719222 53.2039974,35.8916471 L53.2039974,21.1727129 C53.2039974,16.4638424 52.6956933,14.599655 51.7598972,12.8102267 C50.7839342,10.979585 49.3197505,9.50213255 47.5289706,8.54128528 L47.5289706,8.54128528 Z" id="Fill-25" fill="#F4F4F4" mask="url(#mask-6)"></path>
            </g>
            <path d="M36.3796088,24.7046054 L29.1495444,24.7046054 C28.9683146,24.7046054 28.8530735,24.510519 28.9391457,24.3504577 L32.4461095,17.8751617 C32.6192102,17.5559975 32.3882498,17.1673456 32.0257903,17.1673456 L24.5169476,17.1673456 C24.2506019,17.1673456 24.0067307,17.314947 23.8824042,17.550726 L16.4012959,31.7750994 C16.2334551,32.0942637 16.4644155,32.4776441 16.824006,32.4776441 L24.0134252,32.4776441 C24.194655,32.4776441 24.3098961,32.6712513 24.2243021,32.8308334 L20.7254674,39.3621987 C20.5542793,39.6813629 20.7852397,40.068098 21.1467429,40.068098 L28.6598892,40.068098 C28.9262349,40.068098 29.1701061,39.9204965 29.2944326,39.6842383 L36.8027971,25.40715 C36.9706379,25.0879858 36.7396775,24.7046054 36.3796088,24.7046054" id="Fill-27" fill="#F4F4F4"></path>
        </g>
    </g>
</svg>