<?xml version="1.0" encoding="UTF-8"?>
<svg width="22px" height="22px" viewBox="0 0 22 22" version="1.1" xmlns="http://www.w3.org/2000/svg" xmlns:xlink="http://www.w3.org/1999/xlink">
    <title>feedback</title>
    <g id="feedback" stroke="none" stroke-width="1" fill="none" fill-rule="evenodd">
        <rect id="矩形" x="0" y="0" width="22" height="22"></rect>
        <path d="M15.5,4 C17.2330315,4 18.6492459,5.35645477 18.7448552,7.06557609 L18.75,7.25 L18.75,9.75 C18.75,10.1642136 18.4142136,10.5 18,10.5 C17.6203042,10.5 17.306509,10.2178461 17.2568466,9.85177056 L17.25,9.75 L17.25,7.25 C17.25,6.3318266 16.5428897,5.57880766 15.6435272,5.5058012 L15.5,5.5 L5.5,5.5 C4.5818266,5.5 3.82880766,6.20711027 3.7558012,7.10647279 L3.75,7.25 L3.75,15.25 C3.75,16.1681734 4.45711027,16.9211923 5.35647279,16.9941988 L5.5,17 L10,17 C10.4142136,17 10.75,17.3357864 10.75,17.75 C10.75,18.1296958 10.4678461,18.443491 10.1017706,18.4931534 L10,18.5 L5.5,18.5 C3.76696854,18.5 2.35075407,17.1435452 2.25514479,15.4344239 L2.25,15.25 L2.25,7.25 C2.25,5.51696854 3.60645477,4.10075407 5.31557609,4.00514479 L5.5,4 L15.5,4 Z M19.7935175,11.9117895 C20.0437993,12.1605176 20.0665522,12.5497365 19.8617762,12.8240084 L19.7935175,12.9025861 L13.8644968,18.7947993 C13.5891868,19.0684002 13.142821,19.0684002 12.8675109,18.7947993 C12.6172291,18.5460712 12.5944762,18.1568523 12.7992523,17.8825804 L12.8675109,17.8040027 L18.7965316,11.9117895 C19.0718416,11.6381886 19.5182074,11.6381886 19.7935175,11.9117895 Z M9.37114283,8.39872729 C9.56155792,8.39872729 9.74748288,8.45655821 9.90430341,8.5645639 L12.8405716,10.5868354 C13.2681122,10.8812918 13.3759982,11.4665861 13.0815417,11.8941267 C13.0165714,11.9884613 12.9349062,12.0701265 12.8405716,12.1350968 L9.90430341,14.1573683 C9.47676283,14.4518247 8.89146859,14.3439387 8.59701213,13.9163981 C8.48900644,13.7595776 8.43117552,13.5736527 8.43117552,13.3832376 L8.43117552,9.3386946 C8.43117552,8.81956499 8.85201322,8.39872729 9.37114283,8.39872729 Z" id="形状结合" fill="#333333" fill-rule="nonzero"></path>
    </g>
</svg>