<?xml version="1.0" encoding="UTF-8"?>
<svg width="22px" height="22px" viewBox="0 0 22 22" version="1.1" xmlns="http://www.w3.org/2000/svg" xmlns:xlink="http://www.w3.org/1999/xlink">
    <title>report</title>
    <defs>
        <rect id="path-1" x="0" y="0" width="22" height="22"></rect>
        <mask id="mask-2" maskContentUnits="userSpaceOnUse" maskUnits="objectBoundingBox" x="0" y="0" width="22" height="22" fill="white">
            <use xlink:href="#path-1"></use>
        </mask>
    </defs>
    <g id="report" stroke="none" stroke-width="1" fill="none" fill-rule="evenodd">
        <g id="Report" opacity="0" stroke="#999999" stroke-dasharray="3">
            <use id="r" mask="url(#mask-2)" xlink:href="#path-1"></use>
        </g>
        <g id="编组-18">
            <path d="M0,0 L22,0 L22,22 L0,22 L0,0 Z" id="r" fill="#F13D3D" opacity="0"></path>
            <path d="M9.73233316,3.30989658 C11.0073701,2.64601998 12.5960937,3.0781687 13.351794,4.32507428 L13.351794,4.32507428 L19.8010327,14.966318 C20.061516,15.3961155 20.1992386,15.8890769 20.1992386,16.3916477 C20.1992386,17.9104308 18.9680217,19.1416477 17.4492386,19.1416477 L17.4492386,19.1416477 L4.55076138,19.1416477 C4.04819057,19.1416477 3.55522912,19.0039251 3.12543166,18.7434418 C1.82657168,17.9562539 1.41177948,16.265178 2.19896734,14.966318 L2.19896734,14.966318 L8.64820596,4.32507428 C8.87787476,3.94612076 9.19571676,3.62827876 9.57467028,3.39860996 L9.57467028,3.39860996 Z M12.0689973,5.10252686 C11.7111846,4.51213595 10.9425138,4.32359404 10.3521229,4.68140671 C10.1798713,4.78580162 10.0353976,4.93027525 9.93100271,5.10252686 L9.93100271,5.10252686 L3.48176409,15.7437706 C3.12395142,16.3341615 3.31249333,17.1028323 3.90288423,17.460645 C4.09824672,17.5790465 4.3223201,17.6416477 4.55076138,17.6416477 L4.55076138,17.6416477 L17.4492386,17.6416477 C18.1395946,17.6416477 18.6992386,17.0820037 18.6992386,16.3916477 C18.6992386,16.1632064 18.6366374,15.9391331 18.5182359,15.7437706 L18.5182359,15.7437706 Z M11,14 C11.5522847,14 12,14.4477153 12,15 C12,15.5522847 11.5522847,16 11,16 C10.4477153,16 10,15.5522847 10,15 C10,14.4477153 10.4477153,14 11,14 Z M11,7.5 C11.506261,7.5 11.9246546,7.78215388 11.9908712,8.14822944 L12,8.25 L12,11.75 C12,12.1642136 11.5522847,12.5 11,12.5 C10.493739,12.5 10.0753454,12.2178461 10.0091288,11.8517706 L10,11.75 L10,8.25 C10,7.83578644 10.4477153,7.5 11,7.5 Z" id="形状结合" fill="#333333" fill-rule="nonzero"></path>
        </g>
    </g>
</svg>